<?xml version="1.0" standalone="no"?>
<!DOCTYPE svg PUBLIC "-//W3C//DTD SVG 20010904//EN"
 "http://www.w3.org/TR/2001/REC-SVG-20010904/DTD/svg10.dtd">
<svg version="1.0" xmlns="http://www.w3.org/2000/svg"
 width="1095.000000pt" height="845.000000pt" viewBox="0 0 1095.000000 845.000000"
 preserveAspectRatio="xMidYMid meet">
<metadata>
Created by potrace 1.15, written by Peter Selinger 2001-2017
</metadata>
<g transform="translate(0.000000,845.000000) scale(0.100000,-0.100000)"
fill="#000000" stroke="none">
<path d="M4982 8365 c-277 -36 -528 -94 -841 -196 -386 -126 -722 -299 -1134
-586 -198 -138 -522 -439 -701 -652 -90 -106 -246 -312 -246 -323 0 -4 517 -8
1149 -8 l1149 0 13 34 c27 65 663 1385 666 1382 2 -2 -73 -248 -168 -547 -244
-777 -269 -856 -269 -863 0 -3 114 -6 253 -6 l252 0 1 -68 c0 -39 11 -101 24
-147 39 -130 30 -284 -26 -440 -23 -65 -90 -173 -100 -162 -3 2 0 24 6 48 6
24 13 101 17 170 6 123 -3 192 -36 284 -17 45 -74 155 -81 155 -5 0 -6 -26 -3
-58 11 -118 -28 -306 -88 -425 -16 -32 -29 -63 -29 -69 0 -6 -15 -34 -33 -62
-55 -84 -77 -183 -77 -343 0 -81 4 -126 14 -145 8 -14 19 -43 26 -65 19 -56
54 -124 84 -158 14 -16 26 -35 26 -40 0 -17 166 -123 176 -112 2 2 -13 40 -35
83 -21 43 -49 110 -60 148 -21 68 -29 192 -12 182 5 -3 53 1 107 9 87 12 195
21 344 29 25 1 51 5 57 9 6 4 14 3 17 -2 4 -5 1 -11 -5 -13 -7 -2 8 -10 32
-17 24 -7 63 -28 86 -47 23 -19 53 -34 67 -34 20 0 26 -5 26 -22 0 -20 -37
-134 -66 -203 -24 -59 80 76 148 193 37 62 75 181 88 267 13 91 12 279 -1 330
-6 22 -14 56 -18 75 -5 19 -27 74 -50 121 -47 95 -86 259 -78 322 5 37 5 38
-13 22 -28 -25 -38 -67 -45 -185 -10 -169 -35 -348 -62 -439 -13 -47 -26 -88
-29 -90 -13 -13 -12 13 3 80 21 95 23 349 4 434 -24 109 -72 223 -126 305
l-54 80 204 0 c131 0 205 4 205 10 0 6 -25 77 -56 158 -30 81 -80 217 -110
302 -125 349 -257 697 -277 730 -20 32 -22 52 -25 212 l-4 176 68 8 c97 10
418 -2 559 -21 666 -90 1244 -304 1788 -661 355 -234 642 -493 870 -787 l99
-127 114 0 c63 0 114 3 114 6 0 31 -271 363 -435 532 -126 130 -393 362 -512
445 -292 203 -577 366 -843 480 -305 132 -779 257 -1142 302 -159 20 -812 19
-966 0z"/>
<path d="M5614 8085 c3 -9 33 -104 67 -213 62 -200 354 -1124 386 -1219 l17
-53 127 0 128 0 -33 73 c-19 39 -161 335 -316 657 -155 322 -300 627 -323 677
-23 51 -46 93 -51 93 -4 0 -6 -7 -2 -15z"/>
<path d="M5215 5348 c-46 -54 -68 -114 -63 -170 5 -45 4 -48 -16 -42 -60 17
-104 86 -92 147 9 45 -10 31 -24 -18 -17 -59 -9 -199 14 -245 l17 -35 177 3
c140 2 180 6 193 18 9 8 33 48 54 88 27 54 38 89 41 137 l5 64 -23 -30 c-36
-45 -88 -94 -110 -101 -38 -12 -87 6 -115 41 -34 42 -42 77 -31 129 5 21 7 40
5 43 -3 2 -17 -11 -32 -29z"/>
<path d="M4687 4893 c-2 -5 -1 -33 1 -65 3 -45 8 -57 23 -61 14 -4 19 -14 19
-41 l0 -36 406 0 405 0 -2 -218 c-1 -142 2 -225 9 -239 8 -14 10 -120 7 -342
-3 -206 -1 -321 5 -321 6 0 10 10 10 23 0 12 9 117 20 232 11 116 27 296 35
400 8 105 18 225 21 268 l7 77 48 0 c27 0 51 5 56 13 4 6 10 50 13 97 3 47 8
83 11 80 3 -3 13 1 21 7 10 9 15 31 14 70 l-1 58 -140 0 -140 0 -3 -53 c-2
-31 2 -60 9 -68 10 -12 -31 -14 -292 -13 -167 1 -329 4 -359 7 -60 8 -57 3
-59 90 l-1 42 -69 0 c-39 0 -71 -3 -74 -7z"/>
<path d="M1690 2505 c0 -3 27 -58 59 -123 347 -693 874 -1273 1529 -1685 146
-92 420 -234 577 -300 338 -142 766 -256 1137 -302 171 -21 785 -21 956 0 285
35 530 92 851 196 386 126 722 299 1134 586 119 83 386 315 512 445 72 74 178
192 236 263 148 181 365 494 383 553 4 12 12 22 18 22 6 0 8 3 5 6 -4 4 2 19
12 33 10 14 51 90 90 169 l71 142 -125 0 -125 0 -28 -57 c-139 -283 -438 -707
-665 -942 -168 -175 -492 -431 -719 -569 -300 -182 -566 -309 -848 -406 -227
-79 -537 -154 -727 -176 -54 -6 -105 -16 -114 -20 -45 -23 -615 -38 -636 -16
-3 3 -8 155 -10 338 l-6 333 32 70 c18 39 42 95 53 125 11 30 24 60 29 65 4 6
42 107 83 225 189 546 258 736 269 746 24 21 618 206 643 200 26 -7 114 -66
114 -76 0 -4 43 -36 96 -71 53 -35 102 -68 109 -74 8 -5 17 -6 22 -2 7 7 -7
36 -110 230 l-41 77 -541 0 -542 0 -17 -202 c-10 -112 -20 -206 -22 -210 -3
-5 -88 -8 -189 -8 -210 0 -195 -8 -195 103 0 40 -5 127 -12 195 l-12 122
-1668 0 c-917 0 -1668 -2 -1668 -5z m2085 -391 c615 -5 682 -8 696 -22 8 -10
72 -165 142 -347 69 -181 205 -536 301 -788 97 -251 176 -465 176 -475 0 -9
-19 17 -41 58 -23 41 -54 98 -69 125 -15 28 -104 192 -199 365 -95 173 -234
426 -308 561 l-134 247 -42 6 c-23 4 -118 15 -212 26 -159 17 -552 64 -920
109 -88 11 -295 36 -460 56 -165 19 -318 39 -340 43 l-40 7 24 24 24 24 361
-7 c199 -3 667 -9 1041 -12z m1632 -128 c7 -6 -18 -49 -36 -64 -35 -28 -92
-52 -124 -52 -42 0 -121 49 -141 89 -16 29 -15 30 12 33 37 4 284 -1 289 -6z"/>
<path d="M6928 2136 c-606 -9 -709 -13 -722 -26 -8 -8 -35 -69 -60 -135 -24
-66 -63 -167 -86 -225 -23 -58 -45 -116 -50 -130 -5 -14 -23 -61 -40 -105 -17
-44 -55 -143 -85 -220 -29 -77 -63 -165 -75 -195 -12 -30 -35 -89 -50 -130
-15 -41 -63 -167 -107 -280 -94 -241 -97 -250 -85 -250 6 0 56 84 112 188 55
103 124 228 151 277 28 50 72 131 98 180 27 50 70 128 96 175 60 108 151 274
202 370 80 149 105 195 113 203 4 4 56 14 116 22 294 37 712 87 909 110 121
14 270 32 330 40 142 19 626 75 648 75 24 0 21 25 -5 50 -21 19 -32 20 -362
18 -188 -1 -659 -6 -1048 -12z"/>
</g>
</svg>
